<?xml version="1.0" encoding="UTF-8"?>
<svg xmlns="http://www.w3.org/2000/svg" width="1060" height="440" viewBox="0 0 1060 440" role="img" aria-labelledby="title desc">
  <title id="title">Earthloom — 2026-07-21</title>
  <desc id="desc">今天的地球，在低声而持续地呼吸。 Earthquakes 53, Kp 2, solar wind 279 km/s.</desc>
  <defs>
    <linearGradient id="bg" x1="0" y1="0" x2="1" y2="1"><stop stop-color="hsl(231 38% 5%)"/><stop offset="0.52" stop-color="hsl(209 44% 9%)"/><stop offset="1" stop-color="#11101b"/></linearGradient>
    <linearGradient id="thread"><stop stop-color="hsl(208.55555555555554 88% 65%)"/><stop offset="0.5" stop-color="hsl(275 76% 58.666666666666664%)"/><stop offset="1" stop-color="hsl(37.946666666666665 96% 66%)"/></linearGradient>
    <radialGradient id="halo"><stop stop-color="hsl(208.55555555555554 88% 65%)" stop-opacity=".32"/><stop offset="1" stop-color="hsl(208.55555555555554 88% 65%)" stop-opacity="0"/></radialGradient>
    <filter id="soft"><feGaussianBlur stdDeviation="24"/></filter>
  </defs>
  <rect width="1060" height="440" rx="30" fill="url(#bg)"/>
  <circle cx="820" cy="190" r="170" fill="url(#halo)" filter="url(#soft)"/>
  <path d="M48 188 C250 141, 380 235, 530 188 S810 141, 1012 192" fill="none" stroke="url(#thread)" stroke-width="1.8" opacity="0.18"/>
  <path d="M48 214 C250 165, 380 263, 530 214 S810 165, 1012 218" fill="none" stroke="url(#thread)" stroke-width="0.8" opacity="0.22499999999999998"/>
  <path d="M48 240 C250 190, 380 290, 530 240 S810 190, 1012 244" fill="none" stroke="url(#thread)" stroke-width="0.8" opacity="0.27"/>
  <path d="M48 266 C250 232, 380 300, 530 266 S810 232, 1012 270" fill="none" stroke="url(#thread)" stroke-width="1.8" opacity="0.315"/>
  <path d="M48 292 C250 249, 380 335, 530 292 S810 249, 1012 296" fill="none" stroke="url(#thread)" stroke-width="0.8" opacity="0.36"/>
  <path d="M48 318 C250 288, 380 348, 530 318 S810 288, 1012 322" fill="none" stroke="url(#thread)" stroke-width="0.8" opacity="0.40499999999999997"/>
  <path d="M48 344 C250 303, 380 385, 530 344 S810 303, 1012 348" fill="none" stroke="url(#thread)" stroke-width="1.8" opacity="0.45"/>
  <path d="M48 370 C250 341, 380 399, 530 370 S810 341, 1012 374" fill="none" stroke="url(#thread)" stroke-width="0.8" opacity="0.495"/>
  <circle cx="411.7" cy="265.5" r="9.6" fill="none" stroke="hsl(37.946666666666665 96% 66%)" stroke-opacity="0.28"/>
  <circle cx="190.8" cy="218.6" r="9.6" fill="none" stroke="hsl(37.946666666666665 96% 66%)" stroke-opacity="0.31"/>
  <circle cx="158.3" cy="362" r="9.4" fill="none" stroke="hsl(37.946666666666665 96% 66%)" stroke-opacity="0.33"/>
  <circle cx="411.8" cy="250.2" r="9" fill="none" stroke="hsl(37.946666666666665 96% 66%)" stroke-opacity="0.36"/>
  <circle cx="370.6" cy="269.7" r="9" fill="none" stroke="hsl(37.946666666666665 96% 66%)" stroke-opacity="0.38"/>
  <circle cx="652.1" cy="238.5" r="9" fill="none" stroke="hsl(37.946666666666665 96% 66%)" stroke-opacity="0.41"/>
  <circle cx="863.7" cy="282.8" r="8.9" fill="none" stroke="hsl(37.946666666666665 96% 66%)" stroke-opacity="0.43"/>
  <circle cx="723.6" cy="322.1" r="8.8" fill="none" stroke="hsl(37.946666666666665 96% 66%)" stroke-opacity="0.46"/>
  <circle cx="76.7" cy="305.1" r="8.8" fill="none" stroke="hsl(37.946666666666665 96% 66%)" stroke-opacity="0.48"/>
  <circle cx="63" cy="329" r="8.8" fill="none" stroke="hsl(37.946666666666665 96% 66%)" stroke-opacity="0.51"/>
  <circle cx="71.3" cy="311.4" r="8.6" fill="none" stroke="hsl(37.946666666666665 96% 66%)" stroke-opacity="0.53"/>
  <circle cx="916.6" cy="263.7" r="8.6" fill="none" stroke="hsl(37.946666666666665 96% 66%)" stroke-opacity="0.56"/>
  <text x="48" y="62" fill="hsl(5 42% 87%)" font-family="ui-monospace, SFMono-Regular, Menlo, monospace" font-size="13" letter-spacing="4">EARTHLOOM / DAILY PORTRAIT</text>
  <text x="48" y="116" fill="#fff" font-family="ui-sans-serif, system-ui, sans-serif" font-size="34" font-weight="620">2026-07-21</text>
  <text x="48" y="392" fill="hsl(5 42% 87%)" font-family="ui-sans-serif, system-ui, sans-serif" font-size="15">今天的地球，在低声而持续地呼吸。</text>
  <text x="1012" y="62" text-anchor="end" fill="hsl(208.55555555555554 88% 65%)" font-family="ui-monospace, SFMono-Regular, Menlo, monospace" font-size="12">LIVE DATA · 034523D3</text>
  <g fill="hsl(5 42% 87%)" font-family="ui-monospace, SFMono-Regular, Menlo, monospace" font-size="12">
    <text x="620" y="392">QUAKES 53</text><text x="744" y="392">KP 2</text><text x="824" y="392">WIND 279 KM/S</text>
  </g>
  <rect x="1" y="1" width="1058" height="438" rx="29" fill="none" stroke="#fff" stroke-opacity=".11"/>
</svg>