<?xml version="1.0" encoding="UTF-8"?>
<svg xmlns="http://www.w3.org/2000/svg" width="1060" height="440" viewBox="0 0 1060 440" role="img" aria-labelledby="title desc">
  <title id="title">Earthloom — 2026-07-14</title>
  <desc id="desc">深处的震动在织面上留下了宽阔回声。 Earthquakes 45, Kp 2, solar wind 352 km/s.</desc>
  <defs>
    <linearGradient id="bg" x1="0" y1="0" x2="1" y2="1"><stop stop-color="hsl(233 38% 5%)"/><stop offset="0.52" stop-color="hsl(211 44% 9%)"/><stop offset="1" stop-color="#11101b"/></linearGradient>
    <linearGradient id="thread"><stop stop-color="hsl(210.55555555555554 88% 65%)"/><stop offset="0.5" stop-color="hsl(277 76% 58.666666666666664%)"/><stop offset="1" stop-color="hsl(37.57333333333333 96% 66%)"/></linearGradient>
    <radialGradient id="halo"><stop stop-color="hsl(210.55555555555554 88% 65%)" stop-opacity=".32"/><stop offset="1" stop-color="hsl(210.55555555555554 88% 65%)" stop-opacity="0"/></radialGradient>
    <filter id="soft"><feGaussianBlur stdDeviation="24"/></filter>
  </defs>
  <rect width="1060" height="440" rx="30" fill="url(#bg)"/>
  <circle cx="820" cy="190" r="170" fill="url(#halo)" filter="url(#soft)"/>
  <path d="M48 188 C250 185, 380 191, 530 188 S810 185, 1012 192" fill="none" stroke="url(#thread)" stroke-width="1.8" opacity="0.18"/>
  <path d="M48 214 C250 221, 380 207, 530 214 S810 221, 1012 218" fill="none" stroke="url(#thread)" stroke-width="0.8" opacity="0.22499999999999998"/>
  <path d="M48 240 C250 235, 380 245, 530 240 S810 235, 1012 244" fill="none" stroke="url(#thread)" stroke-width="0.8" opacity="0.27"/>
  <path d="M48 266 C250 255, 380 277, 530 266 S810 255, 1012 270" fill="none" stroke="url(#thread)" stroke-width="1.8" opacity="0.315"/>
  <path d="M48 292 C250 278, 380 306, 530 292 S810 278, 1012 296" fill="none" stroke="url(#thread)" stroke-width="0.8" opacity="0.36"/>
  <path d="M48 318 C250 319, 380 317, 530 318 S810 319, 1012 322" fill="none" stroke="url(#thread)" stroke-width="0.8" opacity="0.40499999999999997"/>
  <path d="M48 344 C250 353, 380 335, 530 344 S810 353, 1012 348" fill="none" stroke="url(#thread)" stroke-width="1.8" opacity="0.45"/>
  <path d="M48 370 C250 366, 380 374, 530 370 S810 366, 1012 374" fill="none" stroke="url(#thread)" stroke-width="0.8" opacity="0.495"/>
  <circle cx="979.8" cy="315.6" r="10.5" fill="none" stroke="hsl(37.57333333333333 96% 66%)" stroke-opacity="0.28"/>
  <circle cx="342.7" cy="304.6" r="9.6" fill="none" stroke="hsl(37.57333333333333 96% 66%)" stroke-opacity="0.31"/>
  <circle cx="852.9" cy="267.8" r="9" fill="none" stroke="hsl(37.57333333333333 96% 66%)" stroke-opacity="0.33"/>
  <circle cx="979.4" cy="315.7" r="8.9" fill="none" stroke="hsl(37.57333333333333 96% 66%)" stroke-opacity="0.36"/>
  <circle cx="905.5" cy="231" r="8.8" fill="none" stroke="hsl(37.57333333333333 96% 66%)" stroke-opacity="0.38"/>
  <circle cx="287.9" cy="265.1" r="8.8" fill="none" stroke="hsl(37.57333333333333 96% 66%)" stroke-opacity="0.41"/>
  <circle cx="979.7" cy="315.9" r="8.8" fill="none" stroke="hsl(37.57333333333333 96% 66%)" stroke-opacity="0.43"/>
  <circle cx="859" cy="277.5" r="8.8" fill="none" stroke="hsl(37.57333333333333 96% 66%)" stroke-opacity="0.46"/>
  <circle cx="903.4" cy="231" r="8.6" fill="none" stroke="hsl(37.57333333333333 96% 66%)" stroke-opacity="0.48"/>
  <circle cx="979.6" cy="315.6" r="8.6" fill="none" stroke="hsl(37.57333333333333 96% 66%)" stroke-opacity="0.51"/>
  <circle cx="464.4" cy="363.8" r="8.6" fill="none" stroke="hsl(37.57333333333333 96% 66%)" stroke-opacity="0.53"/>
  <circle cx="852.8" cy="267.8" r="8.5" fill="none" stroke="hsl(37.57333333333333 96% 66%)" stroke-opacity="0.56"/>
  <text x="48" y="62" fill="hsl(7 42% 87%)" font-family="ui-monospace, SFMono-Regular, Menlo, monospace" font-size="13" letter-spacing="4">EARTHLOOM / DAILY PORTRAIT</text>
  <text x="48" y="116" fill="#fff" font-family="ui-sans-serif, system-ui, sans-serif" font-size="34" font-weight="620">2026-07-14</text>
  <text x="48" y="392" fill="hsl(7 42% 87%)" font-family="ui-sans-serif, system-ui, sans-serif" font-size="15">深处的震动在织面上留下了宽阔回声。</text>
  <text x="1012" y="62" text-anchor="end" fill="hsl(210.55555555555554 88% 65%)" font-family="ui-monospace, SFMono-Regular, Menlo, monospace" font-size="12">LIVE DATA · C7DDFE6F</text>
  <g fill="hsl(7 42% 87%)" font-family="ui-monospace, SFMono-Regular, Menlo, monospace" font-size="12">
    <text x="620" y="392">QUAKES 45</text><text x="744" y="392">KP 2</text><text x="824" y="392">WIND 352 KM/S</text>
  </g>
  <rect x="1" y="1" width="1058" height="438" rx="29" fill="none" stroke="#fff" stroke-opacity=".11"/>
</svg>