<?xml version="1.0" encoding="UTF-8"?>
<svg xmlns="http://www.w3.org/2000/svg" width="1060" height="440" viewBox="0 0 1060 440" role="img" aria-labelledby="title desc">
  <title id="title">Earthloom — 2026-07-24</title>
  <desc id="desc">今天的地球，在低声而持续地呼吸。 Earthquakes 48, Kp 4, solar wind 598 km/s.</desc>
  <defs>
    <linearGradient id="bg" x1="0" y1="0" x2="1" y2="1"><stop stop-color="hsl(255 38% 5%)"/><stop offset="0.52" stop-color="hsl(233 44% 9%)"/><stop offset="1" stop-color="#11101b"/></linearGradient>
    <linearGradient id="thread"><stop stop-color="hsl(244.11111111111111 88% 65%)"/><stop offset="0.5" stop-color="hsl(299 76% 61.333333333333336%)"/><stop offset="1" stop-color="hsl(38 96% 66%)"/></linearGradient>
    <radialGradient id="halo"><stop stop-color="hsl(244.11111111111111 88% 65%)" stop-opacity=".32"/><stop offset="1" stop-color="hsl(244.11111111111111 88% 65%)" stop-opacity="0"/></radialGradient>
    <filter id="soft"><feGaussianBlur stdDeviation="24"/></filter>
  </defs>
  <rect width="1060" height="440" rx="30" fill="url(#bg)"/>
  <circle cx="820" cy="190" r="170" fill="url(#halo)" filter="url(#soft)"/>
  <path d="M48 188 C250 179, 380 197, 530 188 S810 179, 1012 192" fill="none" stroke="url(#thread)" stroke-width="1.8" opacity="0.18"/>
  <path d="M48 214 C250 218, 380 210, 530 214 S810 218, 1012 218" fill="none" stroke="url(#thread)" stroke-width="0.8" opacity="0.22499999999999998"/>
  <path d="M48 240 C250 250, 380 230, 530 240 S810 250, 1012 244" fill="none" stroke="url(#thread)" stroke-width="0.8" opacity="0.27"/>
  <path d="M48 266 C250 262, 380 270, 530 266 S810 262, 1012 270" fill="none" stroke="url(#thread)" stroke-width="1.8" opacity="0.315"/>
  <path d="M48 292 C250 298, 380 286, 530 292 S810 298, 1012 296" fill="none" stroke="url(#thread)" stroke-width="0.8" opacity="0.36"/>
  <path d="M48 318 C250 312, 380 324, 530 318 S810 312, 1012 322" fill="none" stroke="url(#thread)" stroke-width="0.8" opacity="0.40499999999999997"/>
  <path d="M48 344 C250 349, 380 339, 530 344 S810 349, 1012 348" fill="none" stroke="url(#thread)" stroke-width="1.8" opacity="0.45"/>
  <path d="M48 370 C250 364, 380 376, 530 370 S810 364, 1012 374" fill="none" stroke="url(#thread)" stroke-width="0.8" opacity="0.495"/>
  <circle cx="861" cy="284.2" r="9.8" fill="none" stroke="hsl(38 96% 66%)" stroke-opacity="0.28"/>
  <circle cx="75.7" cy="215.6" r="8.9" fill="none" stroke="hsl(38 96% 66%)" stroke-opacity="0.31"/>
  <circle cx="871.4" cy="247.5" r="8.9" fill="none" stroke="hsl(38 96% 66%)" stroke-opacity="0.33"/>
  <circle cx="426.8" cy="273.6" r="8.9" fill="none" stroke="hsl(38 96% 66%)" stroke-opacity="0.36"/>
  <circle cx="68.3" cy="216.3" r="8.8" fill="none" stroke="hsl(38 96% 66%)" stroke-opacity="0.38"/>
  <circle cx="265.2" cy="236.7" r="8.8" fill="none" stroke="hsl(38 96% 66%)" stroke-opacity="0.41"/>
  <circle cx="463.7" cy="364" r="8.6" fill="none" stroke="hsl(38 96% 66%)" stroke-opacity="0.43"/>
  <circle cx="288.1" cy="266.3" r="8.6" fill="none" stroke="hsl(38 96% 66%)" stroke-opacity="0.46"/>
  <circle cx="910.9" cy="260.7" r="8.6" fill="none" stroke="hsl(38 96% 66%)" stroke-opacity="0.48"/>
  <circle cx="353.5" cy="259.5" r="8.5" fill="none" stroke="hsl(38 96% 66%)" stroke-opacity="0.51"/>
  <circle cx="893.8" cy="288.5" r="8.5" fill="none" stroke="hsl(38 96% 66%)" stroke-opacity="0.53"/>
  <circle cx="570.3" cy="232.6" r="8.3" fill="none" stroke="hsl(38 96% 66%)" stroke-opacity="0.56"/>
  <text x="48" y="62" fill="hsl(29 42% 87%)" font-family="ui-monospace, SFMono-Regular, Menlo, monospace" font-size="13" letter-spacing="4">EARTHLOOM / DAILY PORTRAIT</text>
  <text x="48" y="116" fill="#fff" font-family="ui-sans-serif, system-ui, sans-serif" font-size="34" font-weight="620">2026-07-24</text>
  <text x="48" y="392" fill="hsl(29 42% 87%)" font-family="ui-sans-serif, system-ui, sans-serif" font-size="15">今天的地球，在低声而持续地呼吸。</text>
  <text x="1012" y="62" text-anchor="end" fill="hsl(244.11111111111111 88% 65%)" font-family="ui-monospace, SFMono-Regular, Menlo, monospace" font-size="12">LIVE DATA · BA04D541</text>
  <g fill="hsl(29 42% 87%)" font-family="ui-monospace, SFMono-Regular, Menlo, monospace" font-size="12">
    <text x="620" y="392">QUAKES 48</text><text x="744" y="392">KP 4</text><text x="824" y="392">WIND 598 KM/S</text>
  </g>
  <rect x="1" y="1" width="1058" height="438" rx="29" fill="none" stroke="#fff" stroke-opacity=".11"/>
</svg>