<?xml version="1.0" encoding="UTF-8"?>
<svg xmlns="http://www.w3.org/2000/svg" width="1060" height="440" viewBox="0 0 1060 440" role="img" aria-labelledby="title desc">
  <title id="title">Earthloom — 2026-07-16</title>
  <desc id="desc">新月留下一块安静的暗面。 Earthquakes 58, Kp 3, solar wind 464 km/s.</desc>
  <defs>
    <linearGradient id="bg" x1="0" y1="0" x2="1" y2="1"><stop stop-color="hsl(237 38% 5%)"/><stop offset="0.52" stop-color="hsl(215 44% 9%)"/><stop offset="1" stop-color="#11101b"/></linearGradient>
    <linearGradient id="thread"><stop stop-color="hsl(220.33333333333334 88% 65%)"/><stop offset="0.5" stop-color="hsl(281 76% 60%)"/><stop offset="1" stop-color="hsl(38.10666666666667 96% 66%)"/></linearGradient>
    <radialGradient id="halo"><stop stop-color="hsl(220.33333333333334 88% 65%)" stop-opacity=".32"/><stop offset="1" stop-color="hsl(220.33333333333334 88% 65%)" stop-opacity="0"/></radialGradient>
    <filter id="soft"><feGaussianBlur stdDeviation="24"/></filter>
  </defs>
  <rect width="1060" height="440" rx="30" fill="url(#bg)"/>
  <circle cx="820" cy="190" r="170" fill="url(#halo)" filter="url(#soft)"/>
  <path d="M48 188 C250 137, 380 239, 530 188 S810 137, 1012 192" fill="none" stroke="url(#thread)" stroke-width="1.8" opacity="0.18"/>
  <path d="M48 214 C250 180, 380 248, 530 214 S810 180, 1012 218" fill="none" stroke="url(#thread)" stroke-width="0.8" opacity="0.22499999999999998"/>
  <path d="M48 240 C250 214, 380 266, 530 240 S810 214, 1012 244" fill="none" stroke="url(#thread)" stroke-width="0.8" opacity="0.27"/>
  <path d="M48 266 C250 227, 380 305, 530 266 S810 227, 1012 270" fill="none" stroke="url(#thread)" stroke-width="1.8" opacity="0.315"/>
  <path d="M48 292 C250 247, 380 337, 530 292 S810 247, 1012 296" fill="none" stroke="url(#thread)" stroke-width="0.8" opacity="0.36"/>
  <path d="M48 318 C250 270, 380 366, 530 318 S810 270, 1012 322" fill="none" stroke="url(#thread)" stroke-width="0.8" opacity="0.40499999999999997"/>
  <path d="M48 344 C250 294, 380 394, 530 344 S810 294, 1012 348" fill="none" stroke="url(#thread)" stroke-width="1.8" opacity="0.45"/>
  <path d="M48 370 C250 336, 380 404, 530 370 S810 336, 1012 374" fill="none" stroke="url(#thread)" stroke-width="0.8" opacity="0.495"/>
  <circle cx="61.4" cy="320.4" r="9.8" fill="none" stroke="hsl(38.10666666666667 96% 66%)" stroke-opacity="0.28"/>
  <circle cx="480.2" cy="365.6" r="9.7" fill="none" stroke="hsl(38.10666666666667 96% 66%)" stroke-opacity="0.31"/>
  <circle cx="111.4" cy="204.2" r="8.6" fill="none" stroke="hsl(38.10666666666667 96% 66%)" stroke-opacity="0.33"/>
  <circle cx="848.3" cy="258.6" r="8.5" fill="none" stroke="hsl(38.10666666666667 96% 66%)" stroke-opacity="0.36"/>
  <circle cx="460.9" cy="364.9" r="8.5" fill="none" stroke="hsl(38.10666666666667 96% 66%)" stroke-opacity="0.38"/>
  <circle cx="898.5" cy="237" r="8.3" fill="none" stroke="hsl(38.10666666666667 96% 66%)" stroke-opacity="0.41"/>
  <circle cx="848.2" cy="258.5" r="8.3" fill="none" stroke="hsl(38.10666666666667 96% 66%)" stroke-opacity="0.43"/>
  <circle cx="128.1" cy="212.1" r="8.3" fill="none" stroke="hsl(38.10666666666667 96% 66%)" stroke-opacity="0.46"/>
  <circle cx="903.2" cy="230.8" r="8.2" fill="none" stroke="hsl(38.10666666666667 96% 66%)" stroke-opacity="0.48"/>
  <circle cx="60.6" cy="313.6" r="8.1" fill="none" stroke="hsl(38.10666666666667 96% 66%)" stroke-opacity="0.51"/>
  <circle cx="960.8" cy="211.5" r="7.9" fill="none" stroke="hsl(38.10666666666667 96% 66%)" stroke-opacity="0.53"/>
  <circle cx="348.6" cy="315.8" r="7.8" fill="none" stroke="hsl(38.10666666666667 96% 66%)" stroke-opacity="0.56"/>
  <text x="48" y="62" fill="hsl(11 42% 87%)" font-family="ui-monospace, SFMono-Regular, Menlo, monospace" font-size="13" letter-spacing="4">EARTHLOOM / DAILY PORTRAIT</text>
  <text x="48" y="116" fill="#fff" font-family="ui-sans-serif, system-ui, sans-serif" font-size="34" font-weight="620">2026-07-16</text>
  <text x="48" y="392" fill="hsl(11 42% 87%)" font-family="ui-sans-serif, system-ui, sans-serif" font-size="15">新月留下一块安静的暗面。</text>
  <text x="1012" y="62" text-anchor="end" fill="hsl(220.33333333333334 88% 65%)" font-family="ui-monospace, SFMono-Regular, Menlo, monospace" font-size="12">LIVE DATA · 61DE2E19</text>
  <g fill="hsl(11 42% 87%)" font-family="ui-monospace, SFMono-Regular, Menlo, monospace" font-size="12">
    <text x="620" y="392">QUAKES 58</text><text x="744" y="392">KP 3</text><text x="824" y="392">WIND 464 KM/S</text>
  </g>
  <rect x="1" y="1" width="1058" height="438" rx="29" fill="none" stroke="#fff" stroke-opacity=".11"/>
</svg>