<?xml version="1.0" encoding="UTF-8"?>
<svg xmlns="http://www.w3.org/2000/svg" width="1060" height="440" viewBox="0 0 1060 440" role="img" aria-labelledby="title desc">
  <title id="title">Earthloom — 2026-07-20</title>
  <desc id="desc">今天的地球，在低声而持续地呼吸。 Earthquakes 49, Kp 1, solar wind 273 km/s.</desc>
  <defs>
    <linearGradient id="bg" x1="0" y1="0" x2="1" y2="1"><stop stop-color="hsl(261 38% 5%)"/><stop offset="0.52" stop-color="hsl(239 44% 9%)"/><stop offset="1" stop-color="#11101b"/></linearGradient>
    <linearGradient id="thread"><stop stop-color="hsl(232.77777777777777 88% 65%)"/><stop offset="0.5" stop-color="hsl(305 76% 57.333333333333336%)"/><stop offset="1" stop-color="hsl(37.52 96% 66%)"/></linearGradient>
    <radialGradient id="halo"><stop stop-color="hsl(232.77777777777777 88% 65%)" stop-opacity=".32"/><stop offset="1" stop-color="hsl(232.77777777777777 88% 65%)" stop-opacity="0"/></radialGradient>
    <filter id="soft"><feGaussianBlur stdDeviation="24"/></filter>
  </defs>
  <rect width="1060" height="440" rx="30" fill="url(#bg)"/>
  <circle cx="820" cy="190" r="170" fill="url(#halo)" filter="url(#soft)"/>
  <path d="M48 188 C250 163, 380 213, 530 188 S810 163, 1012 192" fill="none" stroke="url(#thread)" stroke-width="1.8" opacity="0.18"/>
  <path d="M48 214 C250 176, 380 252, 530 214 S810 176, 1012 218" fill="none" stroke="url(#thread)" stroke-width="0.8" opacity="0.22499999999999998"/>
  <path d="M48 240 C250 212, 380 268, 530 240 S810 212, 1012 244" fill="none" stroke="url(#thread)" stroke-width="0.8" opacity="0.27"/>
  <path d="M48 266 C250 226, 380 306, 530 266 S810 226, 1012 270" fill="none" stroke="url(#thread)" stroke-width="1.8" opacity="0.315"/>
  <path d="M48 292 C250 263, 380 321, 530 292 S810 263, 1012 296" fill="none" stroke="url(#thread)" stroke-width="0.8" opacity="0.36"/>
  <path d="M48 318 C250 278, 380 358, 530 318 S810 278, 1012 322" fill="none" stroke="url(#thread)" stroke-width="0.8" opacity="0.40499999999999997"/>
  <path d="M48 344 C250 315, 380 373, 530 344 S810 315, 1012 348" fill="none" stroke="url(#thread)" stroke-width="1.8" opacity="0.45"/>
  <path d="M48 370 C250 347, 380 393, 530 370 S810 347, 1012 374" fill="none" stroke="url(#thread)" stroke-width="0.8" opacity="0.495"/>
  <circle cx="286.4" cy="266" r="9.4" fill="none" stroke="hsl(37.52 96% 66%)" stroke-opacity="0.28"/>
  <circle cx="809.1" cy="295.4" r="8.5" fill="none" stroke="hsl(37.52 96% 66%)" stroke-opacity="0.31"/>
  <circle cx="285.8" cy="265.5" r="8.3" fill="none" stroke="hsl(37.52 96% 66%)" stroke-opacity="0.33"/>
  <circle cx="872.9" cy="289.3" r="8.3" fill="none" stroke="hsl(37.52 96% 66%)" stroke-opacity="0.36"/>
  <circle cx="337.6" cy="330.6" r="8.3" fill="none" stroke="hsl(37.52 96% 66%)" stroke-opacity="0.38"/>
  <circle cx="338.4" cy="275.9" r="8.2" fill="none" stroke="hsl(37.52 96% 66%)" stroke-opacity="0.41"/>
  <circle cx="947.9" cy="216.2" r="8.2" fill="none" stroke="hsl(37.52 96% 66%)" stroke-opacity="0.43"/>
  <circle cx="76.3" cy="307" r="8.2" fill="none" stroke="hsl(37.52 96% 66%)" stroke-opacity="0.46"/>
  <circle cx="930" cy="221" r="8.2" fill="none" stroke="hsl(37.52 96% 66%)" stroke-opacity="0.48"/>
  <circle cx="714.9" cy="236.6" r="8.1" fill="none" stroke="hsl(37.52 96% 66%)" stroke-opacity="0.51"/>
  <circle cx="61.6" cy="329.2" r="8.1" fill="none" stroke="hsl(37.52 96% 66%)" stroke-opacity="0.53"/>
  <circle cx="286.9" cy="266" r="8.1" fill="none" stroke="hsl(37.52 96% 66%)" stroke-opacity="0.56"/>
  <text x="48" y="62" fill="hsl(35 42% 87%)" font-family="ui-monospace, SFMono-Regular, Menlo, monospace" font-size="13" letter-spacing="4">EARTHLOOM / DAILY PORTRAIT</text>
  <text x="48" y="116" fill="#fff" font-family="ui-sans-serif, system-ui, sans-serif" font-size="34" font-weight="620">2026-07-20</text>
  <text x="48" y="392" fill="hsl(35 42% 87%)" font-family="ui-sans-serif, system-ui, sans-serif" font-size="15">今天的地球，在低声而持续地呼吸。</text>
  <text x="1012" y="62" text-anchor="end" fill="hsl(232.77777777777777 88% 65%)" font-family="ui-monospace, SFMono-Regular, Menlo, monospace" font-size="12">LIVE DATA · 2AACA2D1</text>
  <g fill="hsl(35 42% 87%)" font-family="ui-monospace, SFMono-Regular, Menlo, monospace" font-size="12">
    <text x="620" y="392">QUAKES 49</text><text x="744" y="392">KP 1</text><text x="824" y="392">WIND 273 KM/S</text>
  </g>
  <rect x="1" y="1" width="1058" height="438" rx="29" fill="none" stroke="#fff" stroke-opacity=".11"/>
</svg>