<?xml version="1.0" encoding="UTF-8"?>
<svg xmlns="http://www.w3.org/2000/svg" width="1060" height="440" viewBox="0 0 1060 440" role="img" aria-labelledby="title desc">
  <title id="title">Earthloom — 2026-07-19</title>
  <desc id="desc">今天的地球，在低声而持续地呼吸。 Earthquakes 58, Kp 1, solar wind 323 km/s.</desc>
  <defs>
    <linearGradient id="bg" x1="0" y1="0" x2="1" y2="1"><stop stop-color="hsl(223 38% 5%)"/><stop offset="0.52" stop-color="hsl(201 44% 9%)"/><stop offset="1" stop-color="#11101b"/></linearGradient>
    <linearGradient id="thread"><stop stop-color="hsl(194.77777777777777 88% 65%)"/><stop offset="0.5" stop-color="hsl(267 76% 57.333333333333336%)"/><stop offset="1" stop-color="hsl(37.68 96% 66%)"/></linearGradient>
    <radialGradient id="halo"><stop stop-color="hsl(194.77777777777777 88% 65%)" stop-opacity=".32"/><stop offset="1" stop-color="hsl(194.77777777777777 88% 65%)" stop-opacity="0"/></radialGradient>
    <filter id="soft"><feGaussianBlur stdDeviation="24"/></filter>
  </defs>
  <rect width="1060" height="440" rx="30" fill="url(#bg)"/>
  <circle cx="820" cy="190" r="170" fill="url(#halo)" filter="url(#soft)"/>
  <path d="M48 188 C250 191, 380 185, 530 188 S810 191, 1012 192" fill="none" stroke="url(#thread)" stroke-width="1.8" opacity="0.18"/>
  <path d="M48 214 C250 224, 380 204, 530 214 S810 224, 1012 218" fill="none" stroke="url(#thread)" stroke-width="0.8" opacity="0.22499999999999998"/>
  <path d="M48 240 C250 253, 380 227, 530 240 S810 253, 1012 244" fill="none" stroke="url(#thread)" stroke-width="0.8" opacity="0.27"/>
  <path d="M48 266 C250 264, 380 268, 530 266 S810 264, 1012 270" fill="none" stroke="url(#thread)" stroke-width="1.8" opacity="0.315"/>
  <path d="M48 292 C250 299, 380 285, 530 292 S810 299, 1012 296" fill="none" stroke="url(#thread)" stroke-width="0.8" opacity="0.36"/>
  <path d="M48 318 C250 313, 380 323, 530 318 S810 313, 1012 322" fill="none" stroke="url(#thread)" stroke-width="0.8" opacity="0.40499999999999997"/>
  <path d="M48 344 C250 350, 380 338, 530 344 S810 350, 1012 348" fill="none" stroke="url(#thread)" stroke-width="1.8" opacity="0.45"/>
  <path d="M48 370 C250 381, 380 359, 530 370 S810 381, 1012 374" fill="none" stroke="url(#thread)" stroke-width="0.8" opacity="0.495"/>
  <circle cx="286.4" cy="265.9" r="9.7" fill="none" stroke="hsl(37.68 96% 66%)" stroke-opacity="0.28"/>
  <circle cx="332.5" cy="301.2" r="9.4" fill="none" stroke="hsl(37.68 96% 66%)" stroke-opacity="0.31"/>
  <circle cx="396.1" cy="366.6" r="9.4" fill="none" stroke="hsl(37.68 96% 66%)" stroke-opacity="0.33"/>
  <circle cx="286.8" cy="265.8" r="9.2" fill="none" stroke="hsl(37.68 96% 66%)" stroke-opacity="0.36"/>
  <circle cx="286.4" cy="266" r="9.2" fill="none" stroke="hsl(37.68 96% 66%)" stroke-opacity="0.38"/>
  <circle cx="948.5" cy="215.9" r="9.2" fill="none" stroke="hsl(37.68 96% 66%)" stroke-opacity="0.41"/>
  <circle cx="285.7" cy="265.7" r="9.2" fill="none" stroke="hsl(37.68 96% 66%)" stroke-opacity="0.43"/>
  <circle cx="286.3" cy="265.7" r="9" fill="none" stroke="hsl(37.68 96% 66%)" stroke-opacity="0.46"/>
  <circle cx="62.9" cy="329.1" r="9" fill="none" stroke="hsl(37.68 96% 66%)" stroke-opacity="0.48"/>
  <circle cx="316.2" cy="260.9" r="8.9" fill="none" stroke="hsl(37.68 96% 66%)" stroke-opacity="0.51"/>
  <circle cx="658.1" cy="241.2" r="8.6" fill="none" stroke="hsl(37.68 96% 66%)" stroke-opacity="0.53"/>
  <circle cx="225.5" cy="317.8" r="8.6" fill="none" stroke="hsl(37.68 96% 66%)" stroke-opacity="0.56"/>
  <text x="48" y="62" fill="hsl(357 42% 87%)" font-family="ui-monospace, SFMono-Regular, Menlo, monospace" font-size="13" letter-spacing="4">EARTHLOOM / DAILY PORTRAIT</text>
  <text x="48" y="116" fill="#fff" font-family="ui-sans-serif, system-ui, sans-serif" font-size="34" font-weight="620">2026-07-19</text>
  <text x="48" y="392" fill="hsl(357 42% 87%)" font-family="ui-sans-serif, system-ui, sans-serif" font-size="15">今天的地球，在低声而持续地呼吸。</text>
  <text x="1012" y="62" text-anchor="end" fill="hsl(194.77777777777777 88% 65%)" font-family="ui-monospace, SFMono-Regular, Menlo, monospace" font-size="12">LIVE DATA · 8A3DD4B5</text>
  <g fill="hsl(357 42% 87%)" font-family="ui-monospace, SFMono-Regular, Menlo, monospace" font-size="12">
    <text x="620" y="392">QUAKES 58</text><text x="744" y="392">KP 1</text><text x="824" y="392">WIND 323 KM/S</text>
  </g>
  <rect x="1" y="1" width="1058" height="438" rx="29" fill="none" stroke="#fff" stroke-opacity=".11"/>
</svg>