<svg xmlns="http://www.w3.org/2000/svg" width="1100" height="360" viewBox="0 0 1100 360"><rect width="1100" height="360" rx="28" fill="#07080f"/><text x="42" y="48" fill="#fff" font-family="ui-sans-serif, system-ui" font-size="24" font-weight="600">Earthloom / Seven days of Earth</text><text x="1058" y="48" text-anchor="end" fill="#8f93a8" font-family="ui-monospace, monospace" font-size="11">2026-07-19</text><g transform="translate(42 96)"><rect width="140" height="210" rx="18" fill="hsl(211 44% 9%)" stroke="#fff" stroke-opacity=".12"/><circle cx="70" cy="80" r="40" fill="hsl(210.55555555555554 88% 65%)" opacity="0.32"/><circle cx="90.5842" cy="80" r="32" fill="hsl(233 38% 5%)"/><path d="M16 148 C42 120.7, 84 184.6, 124 140" fill="none" stroke="hsl(37.57333333333333 96% 66%)" opacity=".72"/><text x="16" y="188" fill="#fff" font-family="ui-monospace, monospace" font-size="11">07-14</text></g><g transform="translate(190 96)"><rect width="140" height="210" rx="18" fill="hsl(203 44% 9%)" stroke="#fff" stroke-opacity=".12"/><circle cx="70" cy="80" r="40" fill="hsl(208.33333333333334 88% 65%)" opacity="0.39"/><circle cx="51.4276" cy="80" r="32" fill="hsl(225 38% 5%)"/><path d="M16 148 C42 120.7, 84 183.6, 124 140" fill="none" stroke="hsl(38.10666666666667 96% 66%)" opacity=".72"/><text x="16" y="188" fill="#fff" font-family="ui-monospace, monospace" font-size="11">07-16</text></g><g transform="translate(338 96)"><rect width="140" height="210" rx="18" fill="hsl(237 44% 9%)" stroke="#fff" stroke-opacity=".12"/><circle cx="70" cy="80" r="40" fill="hsl(236.55555555555554 88% 65%)" opacity="0.32"/><circle cx="52.8514" cy="80" r="32" fill="hsl(259 38% 5%)"/><path d="M16 148 C42 121.3, 84 183.8, 124 140" fill="none" stroke="hsl(38.053333333333335 96% 66%)" opacity=".72"/><text x="16" y="188" fill="#fff" font-family="ui-monospace, monospace" font-size="11">07-17</text></g><g transform="translate(486 96)"><rect width="140" height="210" rx="18" fill="hsl(203 44% 9%)" stroke="#fff" stroke-opacity=".12"/><circle cx="70" cy="80" r="40" fill="hsl(202.55555555555554 88% 65%)" opacity="0.32"/><circle cx="54.271" cy="80" r="32" fill="hsl(225 38% 5%)"/><path d="M16 148 C42 122.1, 84 186.6, 124 140" fill="none" stroke="hsl(37.89333333333333 96% 66%)" opacity=".72"/><text x="16" y="188" fill="#fff" font-family="ui-monospace, monospace" font-size="11">07-18</text></g><g transform="translate(634 96)"><rect width="140" height="210" rx="18" fill="hsl(201 44% 9%)" stroke="#fff" stroke-opacity=".12"/><circle cx="70" cy="80" r="40" fill="hsl(194.77777777777777 88% 65%)" opacity="0.25"/><circle cx="55.6948" cy="80" r="32" fill="hsl(223 38% 5%)"/><path d="M16 148 C42 120.9, 84 183.4, 124 140" fill="none" stroke="hsl(37.68 96% 66%)" opacity=".72"/><text x="16" y="188" fill="#fff" font-family="ui-monospace, monospace" font-size="11">07-19</text></g><rect x="1" y="1" width="1098" height="358" rx="27" fill="none" stroke="#fff" stroke-opacity=".1"/></svg>